# Blender v2.62 (sub 0) OBJ File: 'Drake Mirror Bounding Box.blend'
# www.blender.org
mtllib Drake Mirror Bounding Box.mtl
o Plane
v -5.000000 0.000000 -10.000001
v 5.000000 0.000000 -10.000000
v -5.000000 0.000000 10.999999
v 5.000000 0.000000 11.000000
v -5.000000 3.000000 -10.000001
v -5.000000 3.000000 10.999999
v 5.000000 3.000000 -10.000000
v 5.000000 3.000000 11.000000
vn -1.000000 0.000000 -0.000000
vn 1.000000 0.000000 0.000000
vn 0.000000 1.000000 0.000000
vn -0.000000 0.000000 1.000000
vn 0.000000 0.000000 -1.000000
vn -0.577349 -0.577349 -0.577349
vn 0.577349 -0.577349 -0.577349
vn 0.577349 -0.577349 0.577349
vn -0.577349 -0.577349 0.577349
usemtl 
s off
f 5//1 1//1 3//1 6//1
f 2//2 7//2 8//2 4//2
f 5//3 6//3 8//3 7//3
f 4//4 8//4 6//4 3//4
f 1//5 5//5 7//5 2//5
s 1
f 1//6 2//7 4//8 3//9
