# Blender v2.64 (sub 0) OBJ File: 'Barracks.blend'
# www.blender.org
o Barracks.001_Plane.004
v 0.600000 1.300000 0.100000
v -0.650000 1.150000 0.900000
v -0.350000 1.300000 0.100000
v -0.650000 -0.000000 0.900000
v 0.600000 1.300000 0.844111
v -0.600000 1.300000 0.900000
v -0.400000 1.300000 0.100000
v 0.400000 1.300000 0.100000
v 1.500000 -0.000000 0.100000
v -0.600000 1.300000 0.150000
v 0.400000 1.300000 0.150000
v -1.342198 1.200000 0.150000
v 0.400000 0.000000 1.000000
v 0.400000 1.300000 0.900000
v -0.400000 1.200000 1.000000
v -0.600000 1.300000 0.100000
v 0.600000 1.300000 0.150000
v -0.350000 1.200000 0.843411
v -0.600000 0.000000 1.000000
v -0.400000 0.000000 1.000000
v 0.600000 1.300000 0.900000
v -1.500000 1.200000 0.100000
v 1.400000 1.300000 0.100000
v -0.400000 1.300000 0.150000
v -0.650000 1.300000 0.100000
v 0.650000 1.200000 0.150000
v 1.340116 1.300000 0.100000
v 0.600000 1.200000 1.000000
v 0.650000 1.150000 0.900000
v 0.650000 1.200000 0.844111
v 0.400000 1.300000 0.843411
v -1.400000 1.150000 0.150000
v 0.350000 1.200000 0.150000
v -0.350000 1.150000 0.900000
v -0.350000 1.200000 0.150000
v -0.650000 1.200000 0.842977
v -0.400000 1.300000 0.843411
v 0.600000 0.000000 1.000000
v -0.400000 1.300000 0.900000
v -0.600000 1.200000 1.000000
v 0.400000 1.200000 1.000000
v 0.350000 1.300000 0.100000
v 1.400000 -0.000000 0.150000
v 0.350000 1.150000 0.900000
v -1.400000 0.000000 0.135000
v 0.350000 1.200000 0.843411
v -1.400000 1.300000 0.100000
v 1.500000 1.200000 0.100000
v -1.500000 0.000000 0.090000
v 1.400000 1.150000 0.150000
v 0.350000 -0.000000 0.900000
v 0.650000 1.300000 0.100000
v -0.650000 1.200000 0.150000
v -0.350000 -0.000000 0.900000
v 0.650000 -0.000000 0.900000
v -0.600000 1.300000 0.842977
v -1.342198 1.300000 0.100000
v 1.343858 1.200000 0.150000
v 1.500000 0.000000 0.000000
v 0.600000 1.300000 -0.100000
v 1.500000 1.200000 0.000000
v -0.650000 1.150000 -0.900000
v -0.350000 1.300000 -0.100000
v -0.650000 -0.000000 -0.900000
v 0.600000 1.300000 -0.844111
v -0.600000 1.300000 -0.900000
v -0.600000 1.300000 0.000000
v -0.400000 1.300000 -0.100000
v 0.400000 1.300000 -0.100000
v 1.500000 -0.000000 -0.100000
v -0.600000 1.300000 -0.150000
v 0.400000 1.300000 -0.150000
v -1.342198 1.200000 -0.150000
v 0.400000 0.000000 -1.000000
v 0.400000 1.300000 -0.900000
v -0.400000 1.200000 -1.000000
v -0.600000 1.300000 -0.100000
v -1.400000 1.300000 0.000000
v -1.500000 1.200000 0.000000
v 0.600000 1.300000 -0.150000
v -0.350000 1.200000 -0.843411
v -0.600000 0.000000 -1.000000
v -0.400000 0.000000 -1.000000
v 0.600000 1.300000 -0.900000
v -1.500000 1.200000 -0.100000
v 1.400000 1.300000 -0.100000
v -0.400000 1.300000 -0.150000
v -0.650000 1.300000 -0.100000
v 0.650000 1.200000 -0.150000
v 1.340116 1.300000 -0.100000
v 0.600000 1.200000 -1.000000
v 0.400000 1.300000 0.000000
v 0.650000 1.150000 -0.900000
v 0.650000 1.200000 -0.844111
v 0.400000 1.300000 -0.843411
v 1.340116 1.300000 0.000000
v -1.500000 0.000000 0.000000
v 0.600000 1.300000 0.000000
v -0.400000 1.300000 0.000000
v -1.400000 1.150000 -0.150000
v 0.350000 1.200000 -0.150000
v -0.350000 1.150000 -0.900000
v -0.350000 1.200000 -0.150000
v 1.400000 0.000000 0.000000
v -1.400000 0.000000 0.000000
v -0.650000 1.200000 -0.842977
v -0.400000 1.300000 -0.843411
v 0.600000 0.000000 -1.000000
v -0.400000 1.300000 -0.900000
v -0.600000 1.200000 -1.000000
v 0.400000 1.200000 -1.000000
v 0.350000 1.300000 -0.100000
v 1.400000 -0.000000 -0.150000
v 0.350000 1.150000 -0.900000
v -1.400000 0.000000 -0.135000
v 0.350000 1.200000 -0.843411
v -1.400000 1.300000 -0.100000
v 1.400000 1.300000 0.000000
v 1.500000 1.200000 -0.100000
v -1.500000 0.000000 -0.090000
v 1.400000 1.150000 -0.150000
v 0.350000 -0.000000 -0.900000
v 0.650000 1.300000 -0.100000
v -0.650000 1.200000 -0.150000
v -0.350000 -0.000000 -0.900000
v 0.650000 -0.000000 -0.900000
v -0.600000 1.300000 -0.842977
v -1.342198 1.300000 -0.100000
v 1.343858 1.200000 -0.150000
vn 0.000000 0.707107 0.707107
vn 0.000000 1.000000 0.000000
vn 0.707107 0.707106 0.000000
vn -0.707107 0.707107 0.000000
vn -1.000000 0.000000 0.000000
vn 1.000000 0.000000 0.000000
vn -0.904534 0.301511 0.301511
vn -0.000000 0.447214 0.894427
vn -0.894427 0.447213 0.000000
vn -0.894427 0.447214 0.000000
vn 0.894427 0.447214 0.000000
vn 0.894427 0.447213 0.000000
vn -0.916226 0.366491 0.161908
vn 0.904534 0.301512 0.301512
vn 0.904534 0.301511 0.301511
vn -0.904534 0.301512 0.301511
vn 0.894427 0.000000 0.447214
vn -0.894427 0.000000 0.447213
vn -0.430994 -0.009599 0.902304
vn -0.301511 0.301511 0.904534
vn 0.301512 0.301511 0.904534
vn 0.447214 0.000000 0.894427
vn -0.000000 0.000000 1.000000
vn 0.158896 0.368722 0.915858
vn -0.894427 0.000000 0.447214
vn -0.916409 0.366563 0.160707
vn -0.158597 0.366690 0.916725
vn 0.916226 0.366490 0.161908
vn 0.915923 0.366370 0.163883
vn 0.000000 -1.000000 0.000001
vn -0.000000 -1.000000 -0.000001
vn -0.000000 -1.000000 0.000000
vn -0.000000 -0.447214 -0.894427
vn 0.000000 0.707107 -0.707107
vn -0.904534 0.301511 -0.301511
vn 0.000000 0.447214 -0.894427
vn -0.916226 0.366491 -0.161908
vn 0.904534 0.301512 -0.301512
vn 0.904534 0.301511 -0.301511
vn -0.904534 0.301512 -0.301511
vn 0.894427 0.000000 -0.447214
vn -0.894427 0.000000 -0.447213
vn -0.430994 -0.009599 -0.902304
vn -0.301511 0.301511 -0.904534
vn 0.301512 0.301511 -0.904534
vn 0.447214 0.000000 -0.894427
vn 0.000000 -0.000000 -1.000000
vn 0.158896 0.368722 -0.915858
vn -0.894427 0.000000 -0.447214
vn -0.916409 0.366563 -0.160707
vn -0.158597 0.366690 -0.916725
vn 0.916226 0.366490 -0.161908
vn 0.915923 0.366370 -0.163883
vn 0.000000 -0.447214 0.894427
s off
f 15//1 39//1 6//1 40//1
f 67//2 78//2 47//2 16//2
f 23//3 48//3 61//3 118//3
f 47//4 78//4 79//4 22//4
f 22//5 79//5 97//5 49//5
f 9//6 59//6 61//6 48//6
f 40//7 6//7 2//7
f 8//2 92//2 99//2 7//2
f 98//2 1//2 27//2 96//2
f 7//2 99//2 67//2 16//2
f 53//8 16//8 25//8
f 16//9 53//9 10//9
f 3//8 7//8 35//8
f 33//8 8//8 42//8
f 11//10 8//10 33//10
f 26//11 1//11 17//11
f 35//12 7//12 24//12
f 37//12 18//12 35//12 24//12
f 31//13 46//13 44//13 14//13
f 56//9 10//9 53//9 36//9
f 5//11 30//11 26//11 17//11
f 1//2 98//2 92//2 8//2
f 3//8 35//8 33//8 42//8
f 7//2 16//2 6//2 39//2
f 28//14 29//14 21//14
f 15//15 34//15 39//15
f 14//16 44//16 41//16
f 55//17 29//17 28//17 38//17
f 4//18 19//18 40//18 2//18
f 22//19 49//19 45//19 32//19
f 47//20 22//20 32//20
f 48//21 23//21 50//21
f 50//22 43//22 9//22 48//22
f 21//2 1//2 8//2 14//2
f 38//23 28//23 41//23 13//23
f 28//1 21//1 14//1 41//1
f 58//24 50//24 23//24 27//24
f 13//25 41//25 44//25 51//25
f 54//17 34//17 15//17 20//17
f 40//23 19//23 20//23 15//23
f 57//8 12//8 53//8 25//8
f 6//26 56//26 36//26 2//26
f 47//27 32//27 12//27 57//27
f 11//10 33//10 46//10 31//10
f 39//28 34//28 18//28 37//28
f 27//8 1//8 26//8 58//8
f 21//29 29//29 30//29 5//29
f 23//2 118//2 96//2 27//2
f 19//30 4//30 54//30 20//30
f 38//30 13//30 51//30 55//30
f 59//31 9//31 43//31 104//31
f 49//32 97//32 105//32 45//32
f 26//33 1//33 52//33
f 76//34 110//34 66//34 109//34
f 67//2 77//2 117//2 78//2
f 86//3 118//3 61//3 119//3
f 117//4 85//4 79//4 78//4
f 85//5 120//5 97//5 79//5
f 70//6 119//6 61//6 59//6
f 110//35 62//35 66//35
f 69//2 68//2 99//2 92//2
f 90//2 60//2 98//2 96//2
f 68//2 77//2 67//2 99//2
f 124//36 88//36 77//36
f 77//9 71//9 124//9
f 63//36 103//36 68//36
f 101//36 112//36 69//36
f 72//10 101//10 69//10
f 89//11 80//11 60//11
f 103//12 87//12 68//12
f 107//12 87//12 103//12 81//12
f 95//37 75//37 114//37 116//37
f 127//9 106//9 124//9 71//9
f 65//11 80//11 89//11 94//11
f 60//2 69//2 92//2 98//2
f 63//36 112//36 101//36 103//36
f 68//2 109//2 66//2 77//2
f 91//38 84//38 93//38
f 76//39 109//39 102//39
f 75//40 111//40 114//40
f 126//41 108//41 91//41 93//41
f 64//42 62//42 110//42 82//42
f 85//43 100//43 115//43 120//43
f 117//44 100//44 85//44
f 119//45 121//45 86//45
f 121//46 119//46 70//46 113//46
f 69//2 60//2 84//2 75//2
f 108//47 74//47 111//47 91//47
f 91//34 111//34 75//34 84//34
f 129//48 90//48 86//48 121//48
f 74//49 122//49 114//49 111//49
f 125//41 83//41 76//41 102//41
f 110//47 76//47 83//47 82//47
f 128//36 88//36 124//36 73//36
f 66//50 62//50 106//50 127//50
f 117//51 128//51 73//51 100//51
f 72//10 95//10 116//10 101//10
f 109//52 107//52 81//52 102//52
f 89//36 60//36 90//36 129//36
f 84//53 65//53 94//53 93//53
f 86//2 90//2 96//2 118//2
f 82//31 83//31 125//31 64//31
f 108//31 126//31 122//31 74//31
f 59//30 104//30 113//30 70//30
f 120//32 115//32 105//32 97//32
f 123//54 60//54 89//54
o Barracks.000_Plane.003
v -0.650000 1.150000 0.900000
v -0.650000 -0.000000 0.900000
v -1.342198 1.200000 0.150000
v -0.350000 1.200000 0.843411
v 0.650000 1.200000 0.150000
v 0.650000 1.150000 0.900000
v 0.650000 1.200000 0.844111
v -1.400000 1.150000 0.150000
v 0.350000 1.200000 0.150000
v -0.350000 1.150000 0.900000
v -0.350000 1.200000 0.150000
v -0.650000 1.200000 0.842977
v 1.400000 -0.000000 0.150000
v 0.350000 1.150000 0.900000
v -1.400000 0.000000 0.135000
v 0.350000 1.200000 0.843411
v -1.400000 1.150000 0.900000
v 1.400000 1.150000 0.900000
v -1.400000 -0.000000 0.900000
v 1.400000 -0.000000 0.900000
v 0.300000 -0.000000 0.900000
v -0.300000 -0.000000 0.900000
v 1.400000 1.150000 0.150000
v 0.350000 -0.000000 0.900000
v -0.650000 1.200000 0.150000
v -0.350000 -0.000000 0.900000
v 0.650000 -0.000000 0.900000
v -0.250000 -0.000000 0.900000
v 0.250000 -0.000000 0.900000
v -0.300000 0.600000 0.900000
v 0.300000 0.600000 0.900000
v 0.350000 0.600000 0.900000
v -0.350000 0.600000 0.900000
v -0.250000 0.600000 0.900000
v 0.250000 0.600000 0.900000
v 0.200000 0.700000 0.900000
v -0.200000 0.700000 0.900000
v 0.350000 0.700000 0.900000
v -0.350000 0.700000 0.900000
v 0.300000 -0.000000 0.950000
v -0.300000 -0.000000 0.950000
v -0.250000 -0.000000 0.950000
v 0.250000 -0.000000 0.950000
v -0.300000 0.600000 0.950000
v 0.300000 0.600000 0.950000
v -0.250000 0.600000 0.950000
v 0.250000 0.600000 0.950000
v 0.200000 0.700000 0.950000
v -0.200000 0.700000 0.950000
v 1.250000 0.750000 0.900000
v 0.750000 0.700000 0.900000
v 1.250000 1.050000 0.900000
v 1.300000 0.750000 0.900000
v -1.300000 0.750000 0.900000
v 1.300000 1.050000 0.900000
v 0.700000 0.750000 0.900000
v -1.250000 -0.000000 0.900000
v -1.300000 1.050000 0.900000
v -0.750000 -0.000000 0.900000
v -1.250000 1.100000 0.900000
v -0.750000 0.700000 0.900000
v -0.750000 1.100000 0.900000
v 0.700000 1.050000 0.900000
v 0.750000 1.100000 0.900000
v -1.250000 0.700000 0.900000
v 1.250000 1.100000 0.900000
v -0.750000 0.750000 0.900000
v 1.250000 0.700000 0.900000
v 0.750000 0.750000 0.900000
v 0.750000 1.050000 0.900000
v -0.750000 1.050000 0.900000
v -1.250000 1.050000 0.900000
v -1.250000 0.750000 0.900000
v -0.700000 1.050000 0.900000
v -0.700000 0.750000 0.900000
v -1.300000 0.750000 0.925000
v -1.300000 1.050000 0.925000
v -1.250000 1.100000 0.925000
v -1.250000 0.700000 0.925000
v -0.750000 1.050000 0.925000
v -1.250000 1.050000 0.925000
v -1.250000 0.750000 0.925000
v -0.750000 0.700000 0.925000
v -0.750000 1.100000 0.925000
v -0.750000 0.750000 0.925000
v -0.700000 1.050000 0.925000
v -0.700000 0.750000 0.925000
v 1.250000 0.750000 0.925000
v 0.750000 0.700000 0.925000
v 1.250000 1.050000 0.925000
v 1.300000 0.750000 0.925000
v 1.300000 1.050000 0.925000
v 0.700000 0.750000 0.925000
v 0.700000 1.050000 0.925000
v 0.750000 1.100000 0.925000
v 1.250000 1.100000 0.925000
v 0.743750 -0.000000 0.900000
v 1.250000 0.700000 0.925000
v 0.750000 0.750000 0.925000
v 0.750000 1.050000 0.925000
v 1.259375 -0.000000 0.900000
v -1.400000 1.150000 0.842977
v -1.342198 1.200000 0.842977
v -1.342198 1.150000 0.900000
v 1.400000 1.150000 0.844111
v 1.343858 1.200000 0.150000
v 1.343858 1.150000 0.900000
v 1.343858 1.200000 0.844111
v -0.650000 1.150000 -0.900000
v -0.650000 -0.000000 -0.900000
v -1.342198 1.200000 -0.150000
v -0.350000 1.200000 -0.843411
v 0.650000 1.200000 -0.150000
v 0.650000 1.150000 -0.900000
v 0.650000 1.200000 -0.844111
v -1.400000 1.150000 -0.150000
v 0.350000 1.200000 -0.150000
v -0.350000 1.150000 -0.900000
v -0.350000 1.200000 -0.150000
v 1.400000 0.000000 0.000000
v -1.400000 0.000000 0.000000
v -0.650000 1.200000 -0.842977
v 1.400000 -0.000000 -0.150000
v 0.350000 1.150000 -0.900000
v -1.400000 0.000000 -0.135000
v 0.350000 1.200000 -0.843411
v -1.400000 1.150000 -0.900000
v 1.400000 1.150000 -0.900000
v -1.400000 -0.000000 -0.900000
v 1.400000 -0.000000 -0.900000
v 0.300000 -0.000000 -0.900000
v -0.300000 -0.000000 -0.900000
v 1.400000 1.150000 -0.150000
v 0.350000 -0.000000 -0.900000
v -0.650000 1.200000 -0.150000
v -0.350000 -0.000000 -0.900000
v 0.650000 -0.000000 -0.900000
v -0.250000 -0.000000 -0.900000
v 0.250000 -0.000000 -0.900000
v -0.300000 0.600000 -0.900000
v 0.300000 0.600000 -0.900000
v 0.350000 0.600000 -0.900000
v -0.350000 0.600000 -0.900000
v -0.250000 0.600000 -0.900000
v 0.250000 0.600000 -0.900000
v 0.200000 0.700000 -0.900000
v -0.200000 0.700000 -0.900000
v 0.350000 0.700000 -0.900000
v -0.350000 0.700000 -0.900000
v 0.300000 -0.000000 -0.950000
v -0.300000 -0.000000 -0.950000
v -0.250000 -0.000000 -0.950000
v 0.250000 -0.000000 -0.950000
v -0.300000 0.600000 -0.950000
v 0.300000 0.600000 -0.950000
v -0.250000 0.600000 -0.950000
v 0.250000 0.600000 -0.950000
v 0.200000 0.700000 -0.950000
v -0.200000 0.700000 -0.950000
v 1.250000 0.750000 -0.900000
v 0.750000 0.700000 -0.900000
v 1.250000 1.050000 -0.900000
v 1.300000 0.750000 -0.900000
v -1.300000 0.750000 -0.900000
v 1.300000 1.050000 -0.900000
v 0.700000 0.750000 -0.900000
v -1.250000 -0.000000 -0.900000
v -1.300000 1.050000 -0.900000
v -0.750000 -0.000000 -0.900000
v -1.250000 1.100000 -0.900000
v -0.750000 0.700000 -0.900000
v -0.750000 1.100000 -0.900000
v 0.700000 1.050000 -0.900000
v 0.750000 1.100000 -0.900000
v -1.250000 0.700000 -0.900000
v 1.250000 1.100000 -0.900000
v -0.750000 0.750000 -0.900000
v 1.250000 0.700000 -0.900000
v 0.750000 0.750000 -0.900000
v 0.750000 1.050000 -0.900000
v -0.750000 1.050000 -0.900000
v -1.250000 1.050000 -0.900000
v -1.250000 0.750000 -0.900000
v -0.700000 1.050000 -0.900000
v -0.700000 0.750000 -0.900000
v -1.300000 0.750000 -0.925000
v -1.300000 1.050000 -0.925000
v -1.250000 1.100000 -0.925000
v -1.250000 0.700000 -0.925000
v -0.750000 1.050000 -0.925000
v -1.250000 1.050000 -0.925000
v -1.250000 0.750000 -0.925000
v -0.750000 0.700000 -0.925000
v -0.750000 1.100000 -0.925000
v -0.750000 0.750000 -0.925000
v -0.700000 1.050000 -0.925000
v -0.700000 0.750000 -0.925000
v 1.250000 0.750000 -0.925000
v 0.750000 0.700000 -0.925000
v 1.250000 1.050000 -0.925000
v 1.300000 0.750000 -0.925000
v 1.300000 1.050000 -0.925000
v 0.700000 0.750000 -0.925000
v 0.700000 1.050000 -0.925000
v 0.750000 1.100000 -0.925000
v 1.250000 1.100000 -0.925000
v 0.743750 -0.000000 -0.900000
v 1.250000 0.700000 -0.925000
v 0.750000 0.750000 -0.925000
v 0.750000 1.050000 -0.925000
v 1.259375 -0.000000 -0.900000
v -1.400000 1.150000 -0.842977
v -1.342198 1.200000 -0.842977
v -1.342198 1.150000 -0.900000
v 1.400000 1.150000 -0.844111
v 1.343858 1.200000 -0.150000
v 1.343858 1.150000 -0.900000
v 1.343858 1.200000 -0.844111
vn 0.000001 0.000000 1.000000
vn 0.707107 0.707107 0.000000
vn 0.707106 -0.707107 0.000000
vn -0.707107 -0.707106 0.000000
vn 0.707106 0.707107 0.000000
vn 0.707107 -0.707107 0.000000
vn 0.707106 0.707108 0.000000
vn 0.000000 0.745280 0.666752
vn 0.000000 0.751894 0.659284
vn -0.654219 0.756305 0.000000
vn 0.665079 0.746773 0.000000
vn 0.000000 0.749390 0.662129
vn 0.000000 0.000001 1.000000
vn 0.000001 0.000000 -1.000000
vn 0.000000 0.745280 -0.666752
vn 0.000000 0.751894 -0.659284
vn 0.000000 0.749390 -0.662129
vn 0.000000 0.000001 -1.000000
s off
f 172//32 158//32 150//32 169//32
f 157//32 171//32 170//32 151//32
f 209//55 214//55 216//55 215//55
f 165//56 177//56 174//56 160//56
f 213//55 209//55 215//55
f 162//23 159//23 166//23 168//23
f 165//2 166//2 178//2 177//2
f 151//5 170//5 173//5 159//5
f 167//23 165//23 160//23 161//23
f 176//5 164//5 158//5 172//5
f 171//6 157//6 163//6 175//6
f 175//23 173//23 170//23 171//23
f 164//32 176//32 175//32 163//32
f 169//6 150//6 160//6 174//6
f 172//23 169//23 174//23 176//23
f 214//5 209//5 200//5 196//5
f 159//4 173//4 178//4 166//4
f 177//23 178//23 173//23 174//23
f 182//57 220//57 227//57 197//57
f 180//58 218//58 222//58 185//58
f 187//4 206//4 207//4 189//4
f 199//6 229//6 228//6 198//6
f 213//23 207//23 210//23 209//23
f 192//4 223//4 224//4 193//4
f 219//5 181//5 179//5 217//5
f 210//23 207//23 206//23
f 205//23 208//23 211//23
f 205//58 183//58 194//58 208//58
f 202//6 201//6 210//6 211//6
f 190//23 194//23 186//23 188//23
f 216//6 204//6 203//6 215//6
f 203//59 191//59 213//59 215//59
f 212//60 190//60 204//60 216//60
f 212//55 216//55 214//55
f 187//5 183//5 205//5 206//5
f 211//23 210//23 206//23 205//23
f 225//23 219//23 221//23
f 217//23 227//23 220//23
f 228//23 222//23 218//23
f 224//23 223//23 229//23
f 219//23 217//23 220//23 221//23
f 229//23 223//23 222//23 228//23
f 221//6 220//6 182//6 184//6
f 223//5 192//5 185//5 222//5
f 221//61 184//61 195//61 225//61
f 147//23 184//23 182//23 149//23
f 161//23 160//23 150//23 153//23
f 155//23 151//23 159//23 162//23
f 236//62 147//62 237//62
f 199//32 181//32 219//32 229//32
f 149//23 182//23 197//23 230//23
f 158//23 164//23 163//23 157//23
f 201//32 200//32 209//32 210//32
f 195//2 193//2 224//2 225//2
f 226//23 180//23 185//23 156//23
f 194//23 183//23 148//23 186//23
f 187//23 146//23 148//23 183//23
f 146//63 233//63 232//63
f 202//23 196//23 200//23 201//23
f 202//2 211//2 214//2 196//2
f 191//2 189//2 207//2 213//2
f 211//23 208//23 212//23 214//23
f 231//64 146//64 232//64
f 233//23 146//23 187//23 189//23
f 194//32 190//32 212//32 208//32
f 225//23 224//23 229//23 219//23
f 199//23 198//23 179//23 181//23
f 226//23 230//23 197//23 180//23
f 228//23 218//23 227//23 217//23
f 218//32 180//32 197//32 227//32
f 228//2 217//2 179//2 198//2
f 234//65 152//65 235//65 237//65
f 195//23 184//23 147//23 236//23
f 147//65 234//65 237//65
f 133//66 139//66 143//66 145//66
f 131//23 130//23 203//23 204//23
f 130//67 233//67 189//67 191//67
f 237//2 235//2 134//2 136//2
f 146//5 137//5 144//5 148//5
f 130//55 191//55 203//55
f 135//23 192//23 193//23
f 193//23 195//23 236//23 135//23
f 130//63 141//63 232//63 233//63
f 143//23 139//23 168//23 167//23
f 188//23 131//23 204//23 190//23
f 149//2 249//2 250//2 148//2
f 192//23 135//23 156//23 185//23
f 132//2 232//2 141//2 154//2
f 137//64 231//64 232//64 132//64
f 140//2 133//2 145//2 138//2
f 152//6 147//6 149//6 142//6
f 236//62 237//62 136//62 135//62
f 282//32 279//32 260//32 268//32
f 267//32 261//32 280//32 281//32
f 319//68 325//68 326//68 324//68
f 275//56 270//56 284//56 287//56
f 323//68 325//68 319//68
f 272//47 278//47 276//47 269//47
f 275//2 287//2 288//2 276//2
f 261//5 269//5 283//5 280//5
f 277//47 271//47 270//47 275//47
f 286//5 282//5 268//5 274//5
f 281//6 285//6 273//6 267//6
f 285//47 281//47 280//47 283//47
f 274//32 273//32 285//32 286//32
f 279//6 284//6 270//6 260//6
f 282//47 286//47 284//47 279//47
f 324//5 306//5 310//5 319//5
f 269//4 276//4 288//4 283//4
f 287//47 284//47 283//47 288//47
f 292//57 307//57 337//57 330//57
f 290//58 295//58 332//58 328//58
f 297//4 299//4 317//4 316//4
f 309//6 308//6 338//6 339//6
f 323//47 319//47 320//47 317//47
f 302//4 303//4 334//4 333//4
f 329//5 327//5 289//5 291//5
f 320//47 316//47 317//47
f 315//47 321//47 318//47
f 315//58 318//58 304//58 293//58
f 312//6 321//6 320//6 311//6
f 300//47 298//47 296//47 304//47
f 326//6 325//6 313//6 314//6
f 313//59 325//59 323//59 301//59
f 322//60 326//60 314//60 300//60
f 322//68 324//68 326//68
f 297//5 316//5 315//5 293//5
f 321//47 315//47 316//47 320//47
f 335//47 331//47 329//47
f 327//47 330//47 337//47
f 338//47 328//47 332//47
f 334//47 339//47 333//47
f 329//47 331//47 330//47 327//47
f 339//47 338//47 332//47 333//47
f 331//6 294//6 292//6 330//6
f 333//5 332//5 295//5 302//5
f 331//61 335//61 305//61 294//61
f 257//47 259//47 292//47 294//47
f 271//47 263//47 260//47 270//47
f 265//47 272//47 269//47 261//47
f 346//69 347//69 257//69
f 309//32 339//32 329//32 291//32
f 259//47 340//47 307//47 292//47
f 268//47 267//47 273//47 274//47
f 311//32 320//32 319//32 310//32
f 305//2 335//2 334//2 303//2
f 336//47 266//47 295//47 290//47
f 304//47 296//47 258//47 293//47
f 297//47 293//47 258//47 256//47
f 256//70 342//70 343//70
f 312//47 311//47 310//47 306//47
f 312//2 306//2 324//2 321//2
f 301//2 323//2 317//2 299//2
f 321//47 324//47 322//47 318//47
f 341//64 342//64 256//64
f 343//47 299//47 297//47 256//47
f 304//32 318//32 322//32 300//32
f 335//47 329//47 339//47 334//47
f 309//47 291//47 289//47 308//47
f 336//47 290//47 307//47 340//47
f 338//47 327//47 337//47 328//47
f 328//32 337//32 307//32 290//32
f 338//2 308//2 289//2 327//2
f 344//65 347//65 345//65 262//65
f 305//47 346//47 257//47 294//47
f 257//65 347//65 344//65
f 241//71 255//71 253//71 247//71
f 239//47 314//47 313//47 238//47
f 299//72 343//72 238//72 301//72
f 347//2 244//2 242//2 345//2
f 256//5 258//5 254//5 245//5
f 238//68 313//68 301//68
f 243//47 303//47 302//47
f 303//47 243//47 346//47 305//47
f 342//70 251//70 238//70 343//70
f 253//47 277//47 278//47 247//47
f 298//47 300//47 314//47 239//47
f 259//2 258//2 250//2 249//2
f 302//47 295//47 266//47 243//47
f 240//2 264//2 251//2 342//2
f 245//64 240//64 342//64 341//64
f 248//2 246//2 255//2 241//2
f 262//6 252//6 259//6 257//6
f 346//69 243//69 244//69 347//69
